<svg width="97" height="97" viewBox="0 0 97 97" fill="none" xmlns="http://www.w3.org/2000/svg">
<path d="M40.4168 74.6874V38.3124L64.6668 56.4999M48.5002 16.0833C43.1926 16.0833 37.937 17.1287 33.0334 19.1598C28.1298 21.1909 23.6743 24.168 19.9213 27.921C12.3417 35.5006 8.0835 45.7808 8.0835 56.4999C8.0835 67.2191 12.3417 77.4992 19.9213 85.0788C23.6743 88.8319 28.1298 91.8089 33.0334 93.8401C37.937 95.8712 43.1926 96.9166 48.5002 96.9166C59.2193 96.9166 69.4995 92.6584 77.0791 85.0788C84.6587 77.4992 88.9168 67.2191 88.9168 56.4999C88.9168 51.1923 87.8714 45.9367 85.8403 41.0331C83.8092 36.1296 80.8321 31.6741 77.0791 27.921C73.326 24.168 68.8705 21.1909 63.967 19.1598C59.0634 17.1287 53.8078 16.0833 48.5002 16.0833Z" fill="#F0F0F0"/>
</svg>
