<svg width="191" height="73" viewBox="0 0 191 73" fill="none" xmlns="http://www.w3.org/2000/svg">
<path d="M23.7146 45.2221C30.5044 36.6728 30.8956 22.8237 39.445 29.6135C47.9943 36.4034 49.4206 48.8382 42.6308 57.3875C35.8409 65.9368 23.4061 67.3632 14.8568 60.5733C6.30744 53.7835 16.9247 53.7714 23.7146 45.2221Z" fill="url(#paint0_linear_68_180)"/>
<path d="M31.3562 28.0047C24.0461 36.1136 22.7914 49.9113 14.6824 42.6012C6.57349 35.2911 5.92591 22.7915 13.236 14.6825C20.5461 6.5736 33.0458 5.92602 41.1547 13.2361C49.2637 20.5463 38.6663 19.8957 31.3562 28.0047Z" fill="url(#paint1_linear_68_180)"/>
<path d="M75.995 56.63C74.375 56.63 72.815 56.375 71.315 55.865C69.815 55.325 68.48 54.605 67.31 53.705L66.59 56.405H64.7L63.98 46.055L66.05 45.74C66.44 47 66.935 48.14 67.535 49.16C68.135 50.18 68.825 51.065 69.605 51.815C70.385 52.565 71.255 53.135 72.215 53.525C73.205 53.915 74.24 54.11 75.32 54.11C76.49 54.11 77.48 53.915 78.29 53.525C79.1 53.135 79.715 52.58 80.135 51.86C80.585 51.14 80.81 50.3 80.81 49.34C80.81 48.2 80.555 47.255 80.045 46.505C79.535 45.755 78.755 45.095 77.705 44.525C76.655 43.955 75.335 43.43 73.745 42.95C72.425 42.53 71.195 42.05 70.055 41.51C68.945 40.94 67.97 40.28 67.13 39.53C66.29 38.75 65.63 37.835 65.15 36.785C64.67 35.705 64.43 34.43 64.43 32.96C64.43 31.91 64.595 30.905 64.925 29.945C65.255 28.985 65.72 28.1 66.32 27.29C66.95 26.45 67.715 25.73 68.615 25.13C69.515 24.5 70.535 24.02 71.675 23.69C72.845 23.36 74.105 23.195 75.455 23.195C76.985 23.195 78.35 23.42 79.55 23.87C80.75 24.29 81.83 24.875 82.79 25.625L83.285 23.195H85.04L86.21 33.05L84.095 33.455C83.525 31.625 82.82 30.14 81.98 29C81.14 27.83 80.21 26.975 79.19 26.435C78.17 25.865 77.06 25.58 75.86 25.58C74.33 25.58 73.115 26 72.215 26.84C71.315 27.65 70.865 28.76 70.865 30.17C70.865 31.28 71.12 32.195 71.63 32.915C72.17 33.635 72.935 34.25 73.925 34.76C74.945 35.27 76.145 35.765 77.525 36.245C78.965 36.695 80.285 37.22 81.485 37.82C82.715 38.39 83.765 39.065 84.635 39.845C85.535 40.595 86.225 41.495 86.705 42.545C87.215 43.595 87.47 44.84 87.47 46.28C87.47 47.93 87.14 49.4 86.48 50.69C85.85 51.95 84.98 53.03 83.87 53.93C82.79 54.83 81.56 55.505 80.18 55.955C78.83 56.405 77.435 56.63 75.995 56.63ZM90.0261 56V54.11L92.0061 53.84C92.5161 53.78 92.8311 53.615 92.9511 53.345C93.1011 53.045 93.1761 52.505 93.1761 51.725V37.955C93.1761 36.965 93.0861 36.29 92.9061 35.93C92.7261 35.54 92.2911 35.3 91.6011 35.21L89.8461 35.03L90.0261 33.05L99.8361 32.555L100.331 32.87V51.815C100.331 52.475 100.406 52.955 100.556 53.255C100.706 53.555 101.051 53.75 101.591 53.84L103.526 54.155V56H90.0261ZM96.1911 28.73C94.8411 28.73 93.7761 28.4 92.9961 27.74C92.2161 27.05 91.8261 26.12 91.8261 24.95C91.8261 23.81 92.2011 22.895 92.9511 22.205C93.7311 21.515 94.8111 21.17 96.1911 21.17C97.6311 21.17 98.7111 21.515 99.4311 22.205C100.181 22.865 100.556 23.78 100.556 24.95C100.556 26.12 100.166 27.05 99.3861 27.74C98.6061 28.4 97.5411 28.73 96.1911 28.73ZM116.884 56.63C114.454 56.63 112.369 56.165 110.629 55.235C108.919 54.275 107.599 52.925 106.669 51.185C105.769 49.415 105.319 47.33 105.319 44.93C105.319 42.2 105.844 39.89 106.894 38C107.974 36.11 109.444 34.67 111.304 33.68C113.164 32.69 115.279 32.195 117.649 32.195C119.599 32.195 121.294 32.54 122.734 33.23C124.174 33.89 125.284 34.865 126.064 36.155C126.874 37.445 127.279 38.99 127.279 40.79C127.279 41.36 127.249 41.93 127.189 42.5C127.159 43.07 127.084 43.64 126.964 44.21H112.744C112.774 45.86 113.029 47.255 113.509 48.395C114.019 49.535 114.754 50.39 115.714 50.96C116.674 51.53 117.814 51.815 119.134 51.815C120.454 51.815 121.669 51.62 122.779 51.23C123.889 50.81 125.029 50.135 126.199 49.205L127.504 50.645C126.394 52.475 124.939 53.93 123.139 55.01C121.339 56.09 119.254 56.63 116.884 56.63ZM112.744 42.095H120.304C120.364 41.675 120.394 41.27 120.394 40.88C120.424 40.46 120.439 40.04 120.439 39.62C120.439 37.79 120.169 36.455 119.629 35.615C119.119 34.775 118.324 34.355 117.244 34.355C116.344 34.355 115.579 34.61 114.949 35.12C114.319 35.63 113.809 36.455 113.419 37.595C113.059 38.735 112.834 40.235 112.744 42.095ZM138.362 56L130.937 37.595C130.727 36.995 130.532 36.545 130.352 36.245C130.172 35.915 129.977 35.675 129.767 35.525C129.557 35.345 129.242 35.21 128.822 35.12L127.472 34.805L127.742 32.825H141.152V34.715L139.352 34.985C138.782 35.045 138.422 35.24 138.272 35.57C138.152 35.9 138.242 36.47 138.542 37.28L143.537 50.555H143.717L148.307 37.55C148.577 36.77 148.637 36.185 148.487 35.795C148.367 35.405 147.947 35.15 147.227 35.03L145.472 34.715L145.787 32.825H154.787V34.76L153.257 35.03C152.687 35.15 152.252 35.36 151.952 35.66C151.682 35.93 151.367 36.53 151.007 37.46L144.257 56H138.362ZM165.921 56.63C163.491 56.63 161.406 56.165 159.666 55.235C157.956 54.275 156.636 52.925 155.706 51.185C154.806 49.415 154.356 47.33 154.356 44.93C154.356 42.2 154.881 39.89 155.931 38C157.011 36.11 158.481 34.67 160.341 33.68C162.201 32.69 164.316 32.195 166.686 32.195C168.636 32.195 170.331 32.54 171.771 33.23C173.211 33.89 174.321 34.865 175.101 36.155C175.911 37.445 176.316 38.99 176.316 40.79C176.316 41.36 176.286 41.93 176.226 42.5C176.196 43.07 176.121 43.64 176.001 44.21H161.781C161.811 45.86 162.066 47.255 162.546 48.395C163.056 49.535 163.791 50.39 164.751 50.96C165.711 51.53 166.851 51.815 168.171 51.815C169.491 51.815 170.706 51.62 171.816 51.23C172.926 50.81 174.066 50.135 175.236 49.205L176.541 50.645C175.431 52.475 173.976 53.93 172.176 55.01C170.376 56.09 168.291 56.63 165.921 56.63ZM161.781 42.095H169.341C169.401 41.675 169.431 41.27 169.431 40.88C169.461 40.46 169.476 40.04 169.476 39.62C169.476 37.79 169.206 36.455 168.666 35.615C168.156 34.775 167.361 34.355 166.281 34.355C165.381 34.355 164.616 34.61 163.986 35.12C163.356 35.63 162.846 36.455 162.456 37.595C162.096 38.735 161.871 40.235 161.781 42.095Z" fill="#1A202C"/>
<defs>
<linearGradient id="paint0_linear_68_180" x1="20.3899" y1="64.9678" x2="44.9781" y2="34.0079" gradientUnits="userSpaceOnUse">
<stop stop-color="#826DF9"/>
<stop offset="0.2826" stop-color="#7F6DF9"/>
<stop offset="0.5233" stop-color="#746FFA"/>
<stop offset="0.7488" stop-color="#6371FC"/>
<stop offset="0.9637" stop-color="#4A74FF"/>
<stop offset="1" stop-color="#4575FF"/>
</linearGradient>
<linearGradient id="paint1_linear_68_180" x1="35.9066" y1="8.50499" x2="9.43429" y2="37.8701" gradientUnits="userSpaceOnUse">
<stop stop-color="#826DF9"/>
<stop offset="0.2826" stop-color="#7F6DF9"/>
<stop offset="0.5233" stop-color="#746FFA"/>
<stop offset="0.7488" stop-color="#6371FC"/>
<stop offset="0.9637" stop-color="#4A74FF"/>
<stop offset="1" stop-color="#4575FF"/>
</linearGradient>
</defs>
</svg>
