<svg width="400" height="331" viewBox="0 0 400 331" fill="none" xmlns="http://www.w3.org/2000/svg">
<g clip-path="url(#clip0_0_433)">
<path d="M399.421 20.8394H0.578871C0.425345 20.8394 0.278106 20.7784 0.169547 20.6698C0.0609876 20.5613 0 20.414 0 20.2605C0 20.107 0.0609876 19.9597 0.169547 19.8512C0.278106 19.7426 0.425345 19.6816 0.578871 19.6816H399.421C399.575 19.6816 399.722 19.7426 399.83 19.8512C399.939 19.9597 400 20.107 400 20.2605C400 20.414 399.939 20.5613 399.83 20.6698C399.722 20.7784 399.575 20.8394 399.421 20.8394Z" fill="#CACACA"/>
<path d="M13.6081 12.7352C17.1248 12.7352 19.9756 9.8843 19.9756 6.36758C19.9756 2.85086 17.1248 0 13.6081 0C10.0913 0 7.24048 2.85086 7.24048 6.36758C7.24048 9.8843 10.0913 12.7352 13.6081 12.7352Z" fill="#3F3D56"/>
<path d="M35.6051 12.7352C39.1219 12.7352 41.9727 9.8843 41.9727 6.36758C41.9727 2.85086 39.1219 0 35.6051 0C32.0884 0 29.2375 2.85086 29.2375 6.36758C29.2375 9.8843 32.0884 12.7352 35.6051 12.7352Z" fill="#3F3D56"/>
<path d="M57.6022 12.7352C61.1189 12.7352 63.9698 9.8843 63.9698 6.36758C63.9698 2.85086 61.1189 0 57.6022 0C54.0855 0 51.2346 2.85086 51.2346 6.36758C51.2346 9.8843 54.0855 12.7352 57.6022 12.7352Z" fill="#3F3D56"/>
<path d="M250.543 79.777H149.457C148.194 79.777 146.983 79.2754 146.09 78.3825C145.197 77.4896 144.695 76.2785 144.695 75.0157C144.695 73.7529 145.197 72.5419 146.09 71.6489C146.983 70.756 148.194 70.2544 149.457 70.2544H250.543C251.806 70.2544 253.017 70.756 253.91 71.6489C254.803 72.5419 255.305 73.7529 255.305 75.0157C255.305 76.2785 254.803 77.4896 253.91 78.3825C253.017 79.2754 251.806 79.777 250.543 79.777Z" fill="#E4E4E4"/>
<path d="M234.245 63.4787H165.755C164.493 63.4773 163.284 62.9751 162.392 62.0823C161.5 61.1895 160.999 59.9793 160.999 58.7174C160.999 57.4555 161.5 56.2452 162.392 55.3525C163.284 54.4597 164.493 53.9574 165.755 53.9561H234.245C235.508 53.9561 236.719 54.4577 237.612 55.3506C238.505 56.2435 239.006 57.4546 239.006 58.7174C239.006 59.9802 238.505 61.1912 237.612 62.0842C236.719 62.9771 235.508 63.4787 234.245 63.4787Z" fill="#E4E4E4"/>
<path d="M71.625 214.315C94.9633 214.315 113.883 195.395 113.883 172.057C113.883 148.719 94.9633 129.799 71.625 129.799C48.2868 129.799 29.3674 148.719 29.3674 172.057C29.3674 195.395 48.2868 214.315 71.625 214.315Z" fill="#F0F0F0"/>
<path d="M344.852 214.315C368.191 214.315 387.11 195.395 387.11 172.057C387.11 148.719 368.191 129.799 344.852 129.799C321.514 129.799 302.595 148.719 302.595 172.057C302.595 195.395 321.514 214.315 344.852 214.315Z" fill="#F0F0F0"/>
<path d="M200.134 214.315C223.473 214.315 242.392 195.395 242.392 172.057C242.392 148.719 223.473 129.799 200.134 129.799C176.796 129.799 157.877 148.719 157.877 172.057C157.877 195.395 176.796 214.315 200.134 214.315Z" fill="#F0F0F0"/>
<path d="M365.39 190.372C362.06 188.617 358.585 187.154 355.002 186L354.545 180.946L336.018 178.95L333.663 185.41L327.014 187.905C326.776 187.995 326.549 188.113 326.339 188.256H326.332C325.243 188.348 324.195 188.711 323.282 189.311C322.662 189.706 322.112 190.2 321.651 190.772C322.551 191.454 323.485 192.087 324.448 192.691L324.491 192.712C324.765 192.881 325.046 193.05 325.327 193.211C325.833 193.514 326.353 193.802 326.873 194.076L327.204 194.245C327.963 194.638 328.736 195.011 329.53 195.355C329.692 195.425 329.868 195.496 330.029 195.566C330.043 195.573 330.05 195.573 330.064 195.58C330.437 195.735 330.809 195.882 331.189 196.023C332.436 196.499 333.707 196.907 334.998 197.246C338.293 198.124 341.688 198.568 345.098 198.567C346.343 198.567 347.572 198.511 348.789 198.391C351.567 198.135 354.31 197.581 356.97 196.74C356.976 196.74 356.984 196.733 356.991 196.733C358.671 196.197 360.313 195.547 361.904 194.786C361.911 194.779 361.925 194.779 361.932 194.772C362.291 194.603 362.635 194.42 362.986 194.245L363.155 194.16C363.436 194.013 363.717 193.865 363.999 193.71C364.701 193.324 365.39 192.916 366.071 192.48C366.261 192.368 366.444 192.248 366.634 192.122C366.901 191.946 367.168 191.764 367.428 191.574C366.775 191.152 366.093 190.751 365.39 190.372Z" fill="#766FFA"/>
<path d="M344.554 175.755C351.923 175.755 357.898 169.781 357.898 162.412C357.898 155.042 351.923 149.068 344.554 149.068C337.185 149.068 331.211 155.042 331.211 162.412C331.211 169.781 337.185 175.755 344.554 175.755Z" fill="#A0616A"/>
<path d="M335.595 155.913C336.977 157.547 339.314 158.009 341.471 158.198C345.85 158.582 352.218 157.959 356.498 156.971C356.803 159.931 355.97 163.123 357.714 165.559C358.532 162.61 359.007 159.578 359.131 156.521C359.261 155.209 359.09 153.885 358.63 152.65C358.384 152.031 357.97 151.493 357.434 151.098C356.897 150.702 356.261 150.465 355.597 150.414C356.591 149.66 357.756 149.162 358.988 148.964L354.751 146.835L355.839 145.718L348.168 145.249L350.39 143.837C347.046 143.378 343.663 143.271 340.297 143.519C338.734 143.634 337.1 143.854 335.833 144.759C334.567 145.665 333.835 147.465 334.621 148.795C333.637 148.956 332.71 149.367 331.929 149.987C331.147 150.607 330.537 151.416 330.156 152.338C329.674 153.803 329.558 155.364 329.817 156.884C330.106 159.324 330.673 161.722 331.507 164.033L335.595 155.913Z" fill="#2F2E41"/>
<path d="M202.478 149.177C205.594 149.177 208.12 146.652 208.12 143.536C208.12 140.42 205.594 137.894 202.478 137.894C199.362 137.894 196.837 140.42 196.837 143.536C196.837 146.652 199.362 149.177 202.478 149.177Z" fill="#2F2E41"/>
<path d="M197.584 146.471C196.871 145.804 196.342 144.964 196.051 144.032C195.76 143.1 195.715 142.108 195.922 141.154C196.129 140.199 196.58 139.315 197.231 138.587C197.882 137.859 198.71 137.313 199.636 137.001C198.861 137.114 198.118 137.388 197.454 137.804C196.79 138.22 196.221 138.77 195.781 139.419C195.342 140.067 195.043 140.8 194.902 141.571C194.762 142.342 194.783 143.133 194.966 143.895C195.148 144.657 195.487 145.372 195.961 145.996C196.435 146.62 197.034 147.138 197.72 147.517C198.405 147.896 199.162 148.129 199.942 148.2C200.722 148.27 201.509 148.178 202.251 147.928C201.413 148.052 200.559 147.985 199.751 147.732C198.943 147.48 198.202 147.049 197.584 146.47L197.584 146.471Z" fill="#2F2E41"/>
<path d="M202.592 179.686C211.746 179.686 219.166 172.266 219.166 163.112C219.166 153.959 211.746 146.539 202.592 146.539C193.439 146.539 186.019 153.959 186.019 163.112C186.019 172.266 193.439 179.686 202.592 179.686Z" fill="#2F2E41"/>
<path d="M187.848 153.987C190.704 150.776 194.696 148.799 198.981 148.475C203.267 148.151 207.51 149.504 210.817 152.249C210.682 152.12 210.547 151.991 210.407 151.866C207.133 148.933 202.828 147.42 198.439 147.661C194.05 147.903 189.937 149.877 187.004 153.151C184.071 156.425 182.559 160.73 182.8 165.119C183.041 169.508 185.015 173.621 188.289 176.554C188.321 176.582 188.352 176.611 188.384 176.638C188.525 176.763 188.669 176.882 188.813 177.001C185.699 174.039 183.858 169.983 183.679 165.689C183.499 161.395 184.994 157.2 187.849 153.987H187.848Z" fill="#2F2E41"/>
<path d="M202.452 179.546C208.347 179.546 213.126 174.767 213.126 168.871C213.126 162.976 208.347 158.197 202.452 158.197C196.557 158.197 191.778 162.976 191.778 168.871C191.778 174.767 196.557 179.546 202.452 179.546Z" fill="#A0616A"/>
<path d="M221.553 196.683V200.264C220.897 200.683 220.235 201.075 219.559 201.447C219.289 201.595 219.019 201.737 218.748 201.879L218.586 201.96C218.248 202.129 217.917 202.305 217.572 202.467C217.566 202.474 217.552 202.474 217.545 202.481C216.016 203.212 214.437 203.838 212.822 204.352C212.815 204.352 212.809 204.359 212.802 204.359C210.244 205.168 207.607 205.701 204.936 205.947C203.767 206.062 202.584 206.116 201.388 206.116C198.11 206.117 194.846 205.69 191.678 204.846C190.062 204.421 188.477 203.886 186.934 203.244C186.921 203.237 186.914 203.237 186.9 203.231C186.745 203.163 186.576 203.096 186.42 203.028C185.657 202.697 184.913 202.339 184.184 201.96L183.866 201.798C183.089 201.386 182.325 200.953 181.575 200.487L181.535 200.467C180.38 199.747 179.265 198.964 178.197 198.122C177.649 197.703 177.122 197.264 176.609 196.804C176.338 196.575 176.068 196.331 175.811 196.095C174.824 195.183 173.888 194.217 173.007 193.203C173.124 192.499 173.295 191.805 173.52 191.128L173.527 191.121C173.567 191.006 173.615 190.893 173.669 190.783C173.706 190.686 173.749 190.592 173.797 190.5C175.007 188.236 177.196 187.675 179.913 187.553C181.447 187.486 183.143 187.56 184.934 187.54C185.88 187.533 186.86 187.499 187.84 187.411C194.023 186.851 192.901 183.202 193.178 181.235C193.455 179.33 195.171 180.978 195.286 181.086L195.293 181.093C198.792 182.731 202.663 183.409 206.51 183.06C207.173 182.979 207.835 182.931 208.497 182.911C210.241 182.891 209.862 183.391 209.261 183.803C208.969 183.995 208.664 184.167 208.349 184.317C208.349 184.317 208.071 186.006 207.788 188.533C207.517 190.952 216.039 191.79 217.708 192.317H217.714C218.667 192.668 219.517 193.251 220.188 194.013C220.858 194.775 221.327 195.693 221.553 196.683Z" fill="#766FFA"/>
<path d="M191.637 168.169C192.102 168.169 192.48 167.477 192.48 166.624C192.48 165.771 192.102 165.08 191.637 165.08C191.172 165.08 190.794 165.771 190.794 166.624C190.794 167.477 191.172 168.169 191.637 168.169Z" fill="#A0616A"/>
<path d="M213.267 168.169C213.732 168.169 214.11 167.477 214.11 166.624C214.11 165.771 213.732 165.08 213.267 165.08C212.802 165.08 212.424 165.771 212.424 166.624C212.424 167.477 212.802 168.169 213.267 168.169Z" fill="#A0616A"/>
<path d="M58.1054 175.016L60.1332 182.04L86.0469 181.583L85.8198 168.713C85.6401 158.525 78.4403 149.739 68.253 149.918C58.0657 150.098 51.5881 158.711 51.7678 168.898L53.2477 182.162L57.4728 182.087L58.1054 175.016Z" fill="#2F2E41"/>
<path d="M69.411 179.928C75.8323 179.928 81.0378 174.722 81.0378 168.301C81.0378 161.88 75.8323 156.674 69.411 156.674C62.9897 156.674 57.7842 161.88 57.7842 168.301C57.7842 174.722 62.9897 179.928 69.411 179.928Z" fill="#FFB6B6"/>
<path d="M82.1389 160.137C82.1235 159.247 81.8448 158.381 81.3381 157.649C81.2845 157.574 81.2307 157.504 81.1769 157.434C80.7461 156.884 80.1941 156.441 79.5638 156.14C78.9336 155.839 78.2423 155.688 77.5439 155.698L69.1872 155.848L60.8358 155.994C59.6394 156.018 58.5012 156.514 57.6703 157.376C56.8393 158.237 56.3834 159.392 56.4022 160.588L58.3907 164.592L59.5353 166.892L59.7235 166.785C66.9515 162.722 69.9073 162.668 79.4734 166.446L79.6668 166.521L80.4246 164.581L82.1442 160.18L82.1389 160.137Z" fill="#2F2E41"/>
<path d="M92.5542 186.433C90.0602 183.945 81.623 184.933 81.623 184.933L59.3529 186.336C54.4137 186.701 49.9639 190.657 48.3518 192.258C48.6095 192.511 48.8731 192.758 49.1421 192.995C54.0911 197.393 60.3122 200.102 66.9037 200.728C73.4953 201.354 80.1151 199.865 85.8037 196.477C88.1899 195.053 91.243 193.345 93.1561 191.352C93.914 190.567 94.5204 190.583 95.1922 189.723C94.6893 188.371 93.7643 187.217 92.5542 186.433Z" fill="#766FFA"/>
<path d="M71.625 330.668C94.9633 330.668 113.883 311.748 113.883 288.41C113.883 265.072 94.9633 246.152 71.625 246.152C48.2868 246.152 29.3674 265.072 29.3674 288.41C29.3674 311.748 48.2868 330.668 71.625 330.668Z" fill="#F0F0F0"/>
<path d="M344.852 330.668C368.191 330.668 387.11 311.748 387.11 288.41C387.11 265.072 368.191 246.152 344.852 246.152C321.514 246.152 302.595 265.072 302.595 288.41C302.595 311.748 321.514 330.668 344.852 330.668Z" fill="#F0F0F0"/>
<path d="M200.134 330.668C223.473 330.668 242.392 311.748 242.392 288.41C242.392 265.072 223.473 246.152 200.134 246.152C176.796 246.152 157.877 265.072 157.877 288.41C157.877 311.748 176.796 330.668 200.134 330.668Z" fill="#F0F0F0"/>
<path d="M70.9332 294.472C77.3852 294.472 82.6156 289.241 82.6156 282.789C82.6156 276.337 77.3852 271.107 70.9332 271.107C64.4811 271.107 59.2507 276.337 59.2507 282.789C59.2507 289.241 64.4811 294.472 70.9332 294.472Z" fill="#FFB8B8"/>
<path d="M59.881 286.444C59.881 286.444 60.8735 284.701 60.6428 278.878C60.412 273.055 69.2794 276.348 76.689 275.793C84.0985 275.237 82.5301 285.515 82.5301 285.515C82.5301 285.515 83.0646 284.904 84.2091 279.944C85.3536 274.983 82.755 270.04 82.755 270.04C81.9897 264.828 77.8651 266.499 77.8651 266.499C79.8514 267.272 79.4699 268.925 79.4699 268.925C77.7886 265.977 73.664 267.648 73.664 267.648C68.1631 264.196 62.5879 268.742 62.5879 268.742C55.9425 270.25 59.8398 275.535 59.8398 275.535C53.1566 278.912 59.881 286.444 59.881 286.444Z" fill="#2F2E41"/>
<path d="M90.4264 310.207C87.0965 308.452 83.6207 306.99 80.038 305.835L79.5808 300.782L61.0537 298.786L58.6991 305.245L52.0502 307.74C51.8122 307.83 51.5856 307.948 51.3751 308.092H51.368C50.2794 308.184 49.231 308.546 48.3179 309.146C47.6985 309.541 47.1478 310.035 46.6875 310.608C47.5871 311.29 48.5214 311.922 49.4844 312.527L49.5269 312.548C49.801 312.716 50.0823 312.885 50.363 313.047C50.8694 313.349 51.3895 313.637 51.9096 313.911L52.24 314.08C52.9989 314.474 53.7722 314.846 54.5664 315.19C54.728 315.261 54.9039 315.331 55.0655 315.401C55.0793 315.408 55.0865 315.408 55.1003 315.415C55.4731 315.57 55.8454 315.718 56.2249 315.858C57.4717 316.334 58.7434 316.743 60.0344 317.081C63.3292 317.959 66.7246 318.404 70.1344 318.403C71.3787 318.403 72.6086 318.346 73.8248 318.227C76.6031 317.97 79.3458 317.417 82.0059 316.575C82.0125 316.575 82.0203 316.568 82.0269 316.568C83.7074 316.033 85.349 315.382 86.9401 314.621C86.9467 314.614 86.961 314.614 86.9682 314.607C87.3267 314.438 87.6709 314.256 88.0222 314.08L88.191 313.996C88.4723 313.848 88.7536 313.7 89.0349 313.546C89.7375 313.159 90.4264 312.752 91.1076 312.316C91.2973 312.203 91.4804 312.084 91.6702 311.957C91.9371 311.782 92.204 311.599 92.4644 311.409C91.8108 310.987 91.1291 310.587 90.4264 310.207Z" fill="#766FFA"/>
<path d="M216.201 307.736L209.168 307.097L204.959 304.023C204.96 304.017 204.958 304.011 204.954 304.007L204.943 304.012L204.775 303.887L204.753 304.083L197.65 306.814L190.352 305.131L187.827 307.862L176.58 311.593C176.039 311.953 175.563 312.403 175.174 312.923L175.174 312.931C175.647 313.3 176.132 313.664 176.623 314.01C177.738 314.815 178.897 315.558 180.093 316.236C183.006 317.897 186.119 319.176 189.358 320.043C189.651 320.124 189.944 320.2 190.238 320.271C190.748 320.396 191.264 320.515 191.78 320.613C192.822 320.83 193.878 321 194.946 321.123C196.515 321.314 198.095 321.408 199.676 321.406C200.756 321.406 201.826 321.364 202.885 321.281C204.745 321.131 206.593 320.85 208.413 320.439C208.478 320.423 208.544 320.412 208.609 320.39C211.397 319.751 214.107 318.808 216.689 317.577C217.086 317.387 217.482 317.192 217.873 316.991C218.834 316.497 219.768 315.965 220.675 315.394C221.359 314.971 222.027 314.52 222.679 314.053C223.081 313.765 223.477 313.472 223.868 313.168L223.826 313.078C223.132 311.599 222.063 310.328 220.725 309.391C219.388 308.454 217.828 307.883 216.201 307.736Z" fill="#766FFA"/>
<path d="M209.483 272.635C208.662 271.822 207.736 271.122 206.73 270.555C200.512 267.123 193.719 267.063 188.093 270.387C186.694 271.211 185.417 272.225 184.297 273.4C181.14 276.695 179.372 281.078 179.36 285.641V299.173H214.756V284.256C214.756 280.259 212.557 275.632 209.483 272.635Z" fill="#2F2E41"/>
<path d="M196.359 298.804C203.419 298.804 209.143 293.081 209.143 286.02C209.143 278.96 203.419 273.237 196.359 273.237C189.298 273.237 183.575 278.96 183.575 286.02C183.575 293.081 189.298 298.804 196.359 298.804Z" fill="#FFB8B8"/>
<path d="M209.472 274.416C209.446 274.144 209.35 273.884 209.193 273.66C209.036 273.436 208.823 273.257 208.576 273.14C200.577 269.404 192.464 269.502 184.476 273.433H184.329L184.28 273.634C182.706 285.766 182.928 286.032 183.026 286.141C183.18 286.316 183.371 286.455 183.585 286.548C183.782 286.635 183.995 286.679 184.21 286.678H202.445L202.489 286.472C202.7 285.386 202.972 284.313 203.303 283.257C204.03 284.317 204.699 285.416 205.307 286.548L205.383 286.678H208.929C208.996 286.678 209.064 286.673 209.13 286.662C209.496 286.618 209.834 286.442 210.08 286.168C210.178 286.064 210.406 285.815 209.472 274.416Z" fill="#2F2E41"/>
<path d="M354.411 306.095L353.951 300.982L335.183 298.961L332.807 305.502L326.069 308.027C325.825 308.117 325.593 308.236 325.376 308.381C324.031 308.503 322.752 309.023 321.703 309.874C321.857 310.001 322.01 310.123 322.164 310.244C322.195 310.276 322.232 310.303 322.264 310.329C322.693 310.662 323.132 310.991 323.577 311.303C323.693 311.388 323.81 311.472 323.932 311.552C324.907 312.243 325.918 312.884 326.959 313.473C327.954 314.039 328.975 314.561 330.023 315.039C331.948 315.919 333.943 316.636 335.988 317.183C336.274 317.262 336.559 317.336 336.845 317.405C337.343 317.527 337.845 317.643 338.348 317.739C339.364 317.95 340.393 318.116 341.434 318.236C342.963 318.422 344.503 318.514 346.044 318.511C347.097 318.511 348.14 318.471 349.172 318.39C350.985 318.244 352.785 317.969 354.559 317.569C354.623 317.553 354.686 317.543 354.75 317.522C357.467 316.899 360.108 315.979 362.625 314.78C363.012 314.595 363.398 314.404 363.779 314.208C364.716 313.727 365.626 313.208 366.51 312.652C366.827 312.457 367.14 312.256 367.452 312.044C362.652 308.815 355.681 306.503 354.411 306.095Z" fill="#766FFA"/>
<path d="M343.834 295.723C351.297 295.723 357.348 289.672 357.348 282.209C357.348 274.745 351.297 268.694 343.834 268.694C336.37 268.694 330.319 274.745 330.319 282.209C330.319 289.672 336.37 295.723 343.834 295.723Z" fill="#A0616A"/>
<path d="M334.763 275.624C336.162 277.28 338.529 277.747 340.713 277.937C345.148 278.326 351.598 277.695 355.932 276.694C356.244 279.693 355.399 282.926 357.164 285.393C357.992 282.406 358.474 279.335 358.599 276.239C358.731 274.91 358.557 273.569 358.092 272.318C357.843 271.691 357.423 271.146 356.88 270.746C356.337 270.346 355.693 270.106 355.02 270.053C355.169 269.9 355.271 269.708 355.315 269.5C355.358 269.291 355.342 269.074 355.268 268.875C355.105 268.169 354.745 267.524 354.231 267.015C353.717 266.505 353.069 266.152 352.362 265.995L347.497 264.823C347.497 264.823 342.931 262.82 339.521 263.072C337.938 263.188 336.283 263.411 335 264.329C333.717 265.246 332.976 267.069 333.773 268.416C332.776 268.579 331.837 268.995 331.046 269.623C330.254 270.251 329.636 271.07 329.25 272.004C328.762 273.488 328.644 275.069 328.907 276.609C329.2 279.08 329.774 281.509 330.618 283.849L334.763 275.624Z" fill="#2F2E41"/>
<path d="M213.983 160.703C213.573 159.389 212.659 158.292 211.441 157.652C210.233 157.025 208.942 156.571 207.607 156.304C205.273 155.633 202.855 155.302 200.426 155.321C198.004 155.44 195.529 156.276 193.883 158.057C192.238 159.838 191.628 162.666 192.827 164.774L192.694 165.319C194.615 165.547 196.561 165.214 198.297 164.359C200.032 163.504 201.483 162.164 202.473 160.502C203.381 161.937 204.671 163.09 206.198 163.832C207.726 164.574 209.429 164.875 211.118 164.703C211.657 164.659 212.182 164.508 212.662 164.259C213.231 163.883 213.666 163.336 213.904 162.697C214.141 162.057 214.169 161.359 213.983 160.703Z" fill="#2F2E41"/>
<path d="M386.242 3.89483H370.612C370.305 3.89483 370.011 3.77286 369.793 3.55574C369.576 3.33862 369.454 3.04414 369.454 2.73709C369.454 2.43004 369.576 2.13556 369.793 1.91844C370.011 1.70132 370.305 1.57935 370.612 1.57935H386.242C386.549 1.57935 386.843 1.70132 387.06 1.91844C387.277 2.13556 387.399 2.43004 387.399 2.73709C387.399 3.04414 387.277 3.33862 387.06 3.55574C386.843 3.77286 386.549 3.89483 386.242 3.89483Z" fill="#3F3D56"/>
<path d="M386.242 8.23638H370.612C370.305 8.23638 370.011 8.11441 369.793 7.89729C369.576 7.68017 369.454 7.38569 369.454 7.07864C369.454 6.77159 369.576 6.47711 369.793 6.25999C370.011 6.04287 370.305 5.9209 370.612 5.9209H386.242C386.549 5.9209 386.843 6.04287 387.06 6.25999C387.277 6.47711 387.399 6.77159 387.399 7.07864C387.399 7.38569 387.277 7.68017 387.06 7.89729C386.843 8.11441 386.549 8.23638 386.242 8.23638Z" fill="#3F3D56"/>
<path d="M386.242 12.5779H370.612C370.305 12.5779 370.011 12.456 369.793 12.2388C369.576 12.0217 369.454 11.7272 369.454 11.4202C369.454 11.1131 369.576 10.8187 369.793 10.6015C370.011 10.3844 370.305 10.2625 370.612 10.2625H386.242C386.549 10.2625 386.843 10.3844 387.06 10.6015C387.277 10.8187 387.399 11.1131 387.399 11.4202C387.399 11.7272 387.277 12.0217 387.06 12.2388C386.843 12.456 386.549 12.5779 386.242 12.5779Z" fill="#3F3D56"/>
</g>
<defs>
<clipPath id="clip0_0_433">
<rect width="400" height="330.668" fill="white"/>
</clipPath>
</defs>
</svg>
